<svg width="144" height="179" viewBox="0 0 144 179" fill="none" xmlns="http://www.w3.org/2000/svg">
<path d="M17.5059 163.171L3.17499 139.463C1.75903 137.061 -0.507584 131.223 1.75365 127.086C4.58018 121.916 9.52956 100.658 12.0349 96.0746C14.5402 91.4914 26.2289 82.3124 31.1111 73.3811C35.9933 64.4499 34.6442 66.9177 32.2703 59.0569C29.8964 51.196 25.8379 33.1037 24.5498 24.9205C23.2617 16.7374 12.979 5.31642 12.3976 -4.15939C11.8161 -13.6352 31.542 -19.4891 36.5615 -16.7453L70.2971 1.69602C75.9003 4.75893 88.1004 4.81394 93.5001 4.45858L122.683 20.4113L143.372 41.6415C140.525 50.3626 134.484 68.4393 133.097 70.9776C131.362 74.1506 113.756 76.1265 107.784 77.8988C101.812 79.6711 85.4918 98.9868 83.7573 102.16C82.3698 104.698 74.3946 124.465 70.5805 134.031L52.7862 166.583L36.3453 178.354L17.5059 163.171Z" fill="black" fill-opacity="0.2" stroke="black"/>
</svg>
