<svg width="131" height="57" viewBox="0 0 131 57" fill="none" xmlns="http://www.w3.org/2000/svg">
<path d="M10.8 29.8299L10.6 30.3299C9.80001 29.9299 9.00001 29.4299 8.20001 28.8299C4.40001 25.8299 3.30001 19.4299 5.50001 13.5299L5.60001 13.1299C6.50001 15.6299 7.80001 17.8299 9.50001 19.6299C11.8 21.9299 12.2 26.0299 10.8 29.8299Z" fill="#F0B53F"/>
<path d="M11 41.1299L10.9 41.6299C10 41.4299 9.1 41.1299 8.3 40.7299C3.9 38.8299 1.2 33.0299 1.9 26.7299V26.3299C3.4 28.5299 5.2 30.3299 7.2 31.6299C10 33.3299 11.5 37.1299 11 41.1299Z" fill="#F0B53F"/>
<path d="M12.9 51.9299V52.4299C12 52.4299 11.1 52.2299 10.2 52.0299C5.59998 50.9299 2.09998 45.8299 1.59998 39.7299V39.3299C3.39998 41.1299 5.39997 42.5299 7.59997 43.4299C10.5 44.6299 12.6 48.0299 12.9 51.9299Z" fill="#F0B53F"/>
<path d="M12.5 18.6299L12.3 18.9299C11.8 18.4299 11.4 17.8299 11 17.2299C9.10002 14.1299 10 9.42991 13.1 5.82991L13.3 5.62991C13.3 7.62991 13.6 9.52991 14.3 11.1299C15.3 13.4299 14.5 16.4299 12.5 18.6299Z" fill="#F0B53F"/>
<path d="M17 23.8299C17.9 23.5299 19.1 23.0299 20.1 22.0299C23.7 18.7299 23.2 13.5299 23.1 12.8299C22.8 13.5299 22.2 14.6299 21.3 15.7299C19.9 17.3299 18.8 17.5299 17.9 18.6299C17.2 19.5299 16.5 21.0299 17 23.8299Z" fill="#F0B53F"/>
<path d="M15.5 35.5299C16.5 35.0299 18.8 33.6299 20.4 31.0299C22.5 27.5299 22.2 24.0299 22 23.0299C21.6 23.7299 20.9 24.7299 19.9 25.9299C18.5 27.5299 17.6 27.9299 16.8 28.8299C15.9 29.8299 15 31.7299 15.5 35.5299Z" fill="#F0B53F"/>
<path d="M16.3 46.4299C17.3 46.1299 18.1 45.6299 18.6 45.1299C23.1 41.5299 21.7 33.8299 21.6 33.0299C21.3 34.0299 20.8 35.4299 19.6 36.9299C18.3 38.6299 17.3 38.9299 16.5 40.2299C15.9 41.3299 15.4 43.2299 16.3 46.4299Z" fill="#F0B53F"/>
<path d="M17.6 14.5299L17.3 14.6299C17.1 13.9299 17 13.2299 16.9 12.5299C16.6 8.9299 19.5 5.0299 23.8 3.2299H24.1C23.2 5.0299 22.6 6.8299 22.5 8.6299C22.4 11.0299 20.4 13.3299 17.6 14.5299Z" fill="#F0B53F"/>
<path d="M15.6 55.5299C16.3 55.8299 17.1 56.1299 17.8 56.4299C15.7 51.7299 14.6 47.5299 14.1 44.4299C12.4 34.8299 13.8 27.1299 14.5 23.3299C15 20.7299 15.6 18.5299 16.1 16.9299C15.5 18.4299 14.8 20.4299 14.2 23.0299C13.7 25.1299 11.7 33.5299 13.2 44.8299C13.5 47.6299 14.2 51.3299 15.6 55.5299Z" fill="#F0B53F"/>
<path d="M23.2 1.7299C20.2 3.4299 18.6 5.8299 18 6.9299C18.4 6.0299 19.9 2.9299 23.4 1.1299C25.6 0.0299039 27.6 -0.0700962 28.7 0.0299038C27.4 0.129904 25.4 0.529904 23.2 1.7299Z" fill="#F0B53F"/>
<path d="M12.2 4.7299C10 7.5299 9.50002 10.4299 9.40002 11.7299C9.40002 10.7299 9.50002 7.2299 12.1 4.1299C13.7 2.2299 15.6 1.2299 16.7 0.829903C15.5 1.5299 13.8 2.7299 12.2 4.7299Z" fill="#F0B53F"/>
<path d="M4.20003 13.1299C2.90003 17.3299 3.40003 20.9299 3.80003 22.6299C3.40003 21.4299 2.00003 17.2299 3.80003 12.4299C4.90003 9.5299 6.70003 7.7299 7.80003 6.7299C6.70003 8.0299 5.10003 10.1299 4.20003 13.1299Z" fill="#F0B53F"/>
<path d="M0.6 29.0299C0.9 33.4299 2.7 36.6299 3.7 38.0299C2.9 37.0299 0.1 33.6299 0 28.5299C0 25.4299 1 23.0299 1.7 21.8299C1.1 23.3299 0.4 25.8299 0.6 29.0299Z" fill="#F0B53F"/>
<path d="M1.40002 44.0299C2.80002 47.9299 5.20002 50.2299 6.40002 51.2299C5.40002 50.6299 2.10002 48.3299 0.70002 43.7299C-0.0999796 40.9299 0.100021 38.4299 0.400021 37.1299C0.300021 38.7299 0.400021 41.2299 1.40002 44.0299Z" fill="#F0B53F"/>
<path d="M22.7 36.9299C22.9 34.4299 22.6 32.3299 22.3 30.6299C22.8 31.9299 23.4 34.2299 23.1 37.1299C22.9 38.6299 22.5 39.9299 22.1 40.8299C22.4 39.7299 22.6 38.4299 22.7 36.9299Z" fill="#F0B53F"/>
<path d="M23.6 17.3299C23.9 16.2299 24.1 14.9299 24.2 13.3299C24.3 11.7299 24.2 10.2299 24.1 9.02991C24.4 9.92991 24.7 11.4299 24.6 13.3299C24.4 15.1299 23.9 16.5299 23.6 17.3299Z" fill="#F0B53F"/>
<path d="M22.1 29.1299C22.5 27.9299 22.9 26.2299 23.1 24.3299C23.2 22.7299 23.1 21.3299 23 20.2299C23.3 21.1299 23.6 22.4299 23.5 23.9299C23.4 26.2299 22.6 28.1299 22.1 29.1299Z" fill="#F0B53F"/>
<path d="M31.8999 20.9298C31.8999 15.9298 35.6999 12.5298 40.7999 12.5298C45.0999 12.5298 47.1999 15.0298 48.1999 17.2298L43.9999 19.2298C43.5999 17.9298 42.2999 16.8298 40.8999 16.8298C38.4999 16.8298 36.9999 18.6298 36.9999 20.9298C36.9999 23.2298 38.5999 25.0298 40.8999 25.0298C42.3999 25.0298 43.5999 23.9298 43.9999 22.6298L48.1999 24.5298C47.2999 26.7298 45.0999 29.2298 40.7999 29.2298C35.7999 29.3298 31.8999 25.9298 31.8999 20.9298Z" fill="#F3F3F3"/>
<path d="M49.5999 23.1298C49.5999 19.7298 52.1999 16.9298 55.9999 16.9298C59.3999 16.9298 62.0999 19.4298 62.0999 23.5298V24.4298H54.0999C54.3999 25.2298 55.1999 25.9298 56.5999 25.9298C57.2999 25.9298 58.6999 25.6298 59.2999 25.1298L61.0999 27.8298C59.8999 28.8298 57.7999 29.3298 56.0999 29.3298C52.4999 29.3298 49.5999 27.0298 49.5999 23.1298ZM55.9999 20.3298C54.6999 20.3298 54.1999 21.2298 54.0999 21.7298H57.9999C57.8999 21.2298 57.3999 20.3298 55.9999 20.3298Z" fill="#F3F3F3"/>
<path d="M63.3999 25.7298C64.1999 25.7298 64.7999 25.1298 65.0999 22.9298L65.8999 17.3298H76.3999V29.0298H71.9999V21.1298H69.5999L69.2999 23.5298C68.7999 27.1298 67.2999 29.3298 63.3999 29.3298V25.7298Z" fill="#F3F3F3"/>
<path d="M83.0999 17.2298V20.7298H86.7999C89.7999 20.7298 91.2999 22.6298 91.2999 24.8298C91.2999 27.0298 89.5999 28.9298 86.7999 28.9298H78.6999V17.2298H83.0999ZM83.0999 24.2298V25.6298H85.9999C86.4999 25.6298 86.8999 25.3298 86.8999 24.9298C86.8999 24.5298 86.4999 24.2298 85.9999 24.2298H83.0999Z" fill="#F3F3F3"/>
<path d="M99.9999 29.0298L98.1999 25.9298L96.2999 29.0298H91.4999L95.2999 23.0298L91.7999 17.2298H96.5999L98.1999 19.9298L99.7999 17.2298H104.6L101 22.9298L104.9 28.9298H99.9999V29.0298Z" fill="#F3F3F3"/>
<path d="M105 23.1298C105 19.8298 107.4 16.9298 111.6 16.9298C115.8 16.9298 118.2 19.8298 118.2 23.1298C118.2 26.4298 115.8 29.3298 111.6 29.3298C107.5 29.3298 105 26.4298 105 23.1298ZM113.7 23.1298C113.7 21.8298 112.9 20.8298 111.6 20.8298C110.3 20.8298 109.5 21.8298 109.5 23.1298C109.5 24.4298 110.3 25.4298 111.6 25.4298C113 25.4298 113.7 24.4298 113.7 23.1298Z" fill="#F3F3F3"/>
<path d="M79.8999 41.9298C79.8999 38.7298 82.1999 36.0298 86.1999 36.0298C90.1999 36.0298 92.5999 38.8298 92.5999 41.9298C92.5999 45.1298 90.2999 47.9298 86.1999 47.9298C82.1999 47.9298 79.8999 45.1298 79.8999 41.9298ZM88.2999 41.9298C88.2999 40.7298 87.5999 39.7298 86.2999 39.7298C84.9999 39.7298 84.2999 40.7298 84.2999 41.9298C84.2999 43.2298 84.9999 44.1298 86.2999 44.1298C87.5999 44.2298 88.2999 43.2298 88.2999 41.9298Z" fill="#F3F3F3"/>
<path d="M119.1 27.4298L121 24.8298C122.1 25.6298 123.6 25.9298 124.7 25.9298C125.8 25.9298 126.1 25.6298 126.1 25.3298C126.1 24.9298 125.7 24.6298 124.5 24.6298H122.3V21.4298H124.5C125.8 21.4298 125.9 21.1298 125.9 20.7298C125.9 20.4298 125.4 20.1298 124.6 20.1298C123.2 20.1298 122.1 20.5298 121.3 21.3298L119.2 18.8298C120.4 17.6298 122.2 16.8298 124.4 16.8298C128.5 16.8298 130.4 18.1298 130.4 20.1298C130.4 21.4298 129.1 22.5298 127.4 22.8298C128.9 22.9298 130.6 23.9298 130.6 25.5298C130.6 27.6298 128.3 29.1298 124.7 29.1298C122.3 29.3298 120.2 28.5298 119.1 27.4298Z" fill="#F3F3F3"/>
<path d="M32.7999 47.6298V36.3298H36.9999V41.3298L40.3999 36.3298H44.6999V47.6298H40.4999V42.2298L36.7999 47.6298H32.7999Z" fill="#F3F3F3"/>
<path d="M46.5999 47.6298V36.3298H50.7999V39.9298H54.1999V36.3298H58.3999V47.6298H54.1999V43.5298H50.7999V47.6298H46.5999Z" fill="#F3F3F3"/>
<path d="M92.8999 45.7298C92.8999 44.8298 93.5999 44.1298 94.4999 44.1298C95.3999 44.1298 96.0999 44.8298 96.0999 45.7298C96.0999 46.6298 95.3999 47.3298 94.4999 47.3298C93.5999 47.3298 92.8999 46.6298 92.8999 45.7298Z" fill="#F3F3F3"/>
<path d="M101.5 46.4298V51.9298H97.2999V36.3298H101.5V37.5298C102.4 36.4298 103.5 36.0298 104.7 36.0298C107.5 36.0298 109.7 38.1298 109.7 41.9298C109.7 45.8298 107.6 47.9298 104.7 47.9298C103.6 47.9298 102.5 47.5298 101.5 46.4298ZM105.4 41.9298C105.4 40.5298 104.4 39.7298 103.3 39.7298C102.8 39.7298 102 40.0298 101.6 40.5298V43.4298C102 43.9298 102.8 44.2298 103.3 44.2298C104.4 44.1298 105.4 43.3298 105.4 41.9298Z" fill="#F3F3F3"/>
<path d="M123.3 36.0298C123 36.0298 122.7 36.0298 122.4 36.0298V34.1298H118.2V36.0298C117.9 36.0298 117.6 36.0298 117.3 36.0298C113.3 36.0298 110.9 38.8298 110.9 42.0298C110.9 45.2298 113.2 47.9298 117.3 47.9298C117.6 47.9298 117.9 47.9298 118.2 47.9298V52.0298H122.4V47.9298C122.7 47.9298 123 47.9298 123.3 47.9298C127.3 47.9298 129.7 45.1298 129.7 41.9298C129.7 38.8298 127.3 36.0298 123.3 36.0298ZM118.2 44.0298C117.9 44.1298 117.7 44.2298 117.3 44.2298C116 44.2298 115.3 43.2298 115.3 42.0298C115.3 40.7298 116 39.8298 117.3 39.8298C117.6 39.8298 117.9 39.9298 118.2 40.0298V44.0298ZM123.3 44.1298C123 44.1298 122.7 44.0298 122.4 43.9298V39.8298C122.7 39.7298 122.9 39.6298 123.3 39.6298C124.6 39.6298 125.3 40.6298 125.3 41.8298C125.4 43.2298 124.6 44.1298 123.3 44.1298Z" fill="#F3F3F3"/>
<path d="M72.2999 36.0298C71.9999 36.0298 71.6999 36.0298 71.3999 36.0298V34.1298H67.1999V36.0298C66.8999 36.0298 66.5999 36.0298 66.2999 36.0298C62.2999 36.0298 59.8999 38.8298 59.8999 42.0298C59.8999 45.2298 62.1999 47.9298 66.2999 47.9298C66.5999 47.9298 66.8999 47.9298 67.1999 47.9298V52.0298H71.3999V47.9298C71.6999 47.9298 71.9999 47.9298 72.2999 47.9298C76.2999 47.9298 78.6999 45.1298 78.6999 41.9298C78.6999 38.8298 76.2999 36.0298 72.2999 36.0298ZM67.1999 44.0298C66.8999 44.1298 66.6999 44.2298 66.2999 44.2298C64.9999 44.2298 64.2999 43.2298 64.2999 42.0298C64.2999 40.7298 64.9999 39.8298 66.2999 39.8298C66.5999 39.8298 66.8999 39.9298 67.1999 40.0298V44.0298ZM72.2999 44.1298C71.9999 44.1298 71.6999 44.0298 71.3999 43.9298V39.8298C71.6999 39.7298 71.8999 39.6298 72.2999 39.6298C73.5999 39.6298 74.2999 40.6298 74.2999 41.8298C74.2999 43.2298 73.5999 44.1298 72.2999 44.1298Z" fill="#F3F3F3"/>
</svg>
